<svg width="375" height="623" viewBox="0 0 375 623" fill="none" xmlns="http://www.w3.org/2000/svg">
<g clip-path="url(#clip0)">
<rect width="375" height="623" fill="#394BBB"/>
<path d="M155.878 88.1843C106.939 162.093 69.941 217.967 -1 178L-76 26L-40 -89L352 -67C379.667 -44.3333 422.2 0.799988 371 -1.52588e-05C307 -1.00002 205 14 156 88L155.878 88.1843Z" fill="#3344A8"/>
<path d="M189 278.722C130 334.722 27 430 -75 386.722L-41 504.722C18 487.722 73.0557 457.461 290 440.722C416 431 444 306.097 398 268.722C334 216.722 248 222.722 189 278.722Z" fill="#3344A8"/>
<path d="M186 570C289.2 554.8 355.667 520.333 376 505V698H67.0001C63.6668 661.667 82.8001 585.2 186 570Z" fill="#4D5DC2"/>
</g>
<defs>
<clipPath id="clip0">
<rect width="375" height="623" fill="white"/>
</clipPath>
</defs>
</svg>
