<svg width="86" height="86" viewBox="0 0 86 86" fill="none" xmlns="http://www.w3.org/2000/svg">
<path d="M32.561 9.04604C33.3031 3.92955 37.7084 0 43.0302 0C48.3954 0 52.8288 3.99451 53.5171 9.17201" fill="#CCCCCC"/>
<path d="M71.7528 40.6963C71.7528 44.2867 68.9879 47.2287 65.4724 47.5096C65.2893 47.5253 65.103 47.5332 64.916 47.5332C64.4377 47.5332 63.9712 47.4846 63.5204 47.3902H22.3418C21.8911 47.4846 21.4245 47.5332 20.9462 47.5332H20.9416C17.1663 47.5299 14.1094 44.4717 14.1094 40.6963C14.1094 37.1375 16.829 34.2144 20.3039 33.8923C20.5158 33.8706 20.7297 33.8615 20.9462 33.8615C21.2336 33.8615 21.5151 33.8785 21.7933 33.9126H64.0689C64.3471 33.8785 64.6286 33.8615 64.916 33.8615C65.3215 33.8615 65.7197 33.8969 66.1049 33.9651C69.3147 34.5261 71.7528 37.3271 71.7528 40.6963V40.6963Z" fill="#FFD0A6"/>
<path d="M65.8312 33.9651V42.6247C65.8312 44.3063 65.6127 45.9427 65.1987 47.5096C65.0157 47.5253 64.8293 47.5332 64.6423 47.5332C64.164 47.5332 63.6975 47.4846 63.2467 47.3901H22.0682C21.6174 47.4846 21.1509 47.5332 20.6726 47.5332H20.668C20.2513 45.9585 20.0309 44.3162 20.0309 42.6253V33.8923C20.2422 33.8706 20.4567 33.8608 20.6726 33.8608C20.96 33.8608 21.2414 33.8778 21.5196 33.9126H63.7959C64.0741 33.8778 64.355 33.8608 64.6423 33.8608C65.0485 33.8608 65.4461 33.8969 65.8312 33.9651V33.9651Z" fill="#E8B182"/>
<path d="M67.6743 42.2186C67.1665 42.2186 66.6823 41.9226 66.4664 41.4266C65.9166 40.1622 64.2553 40.5664 64.0676 40.6169C63.3669 40.8151 62.6451 40.4076 62.447 39.7089C62.2482 39.0094 62.6589 38.2798 63.3577 38.0817C64.7513 37.686 67.698 37.6572 68.881 40.3775C69.171 41.0441 68.8652 41.8196 68.1986 42.109C68.028 42.1831 67.8495 42.2186 67.6743 42.2186Z" fill="#DDA378"/>
<path d="M18.1878 42.2185C18.0127 42.2185 17.8342 42.1831 17.6629 42.1089C16.997 41.8183 16.6912 41.0427 16.9819 40.3761C17.6505 38.8395 19.3899 37.4144 22.2624 38.0226C22.9736 38.1728 23.4283 38.8716 23.2781 39.5829C23.1272 40.2941 22.4284 40.7481 21.7178 40.5979C21.0473 40.4568 19.8538 40.3755 19.3958 41.4272C19.1799 41.9226 18.6957 42.2185 18.1878 42.2185Z" fill="#DDA378"/>
<path d="M63.7934 77.1554V86H22.0669V77.1554C22.0669 65.6331 31.4069 56.2912 42.9291 56.2912C44.5596 56.2912 46.1461 56.4789 47.6697 56.8318C51.5284 57.7288 54.9756 59.6965 57.6828 62.4017C61.4575 66.1784 63.7934 71.394 63.7934 77.1554V77.1554Z" fill="#3598BA"/>
<path d="M63.7927 77.1554V85.9994H58.6015V79.6533C58.6015 78.9263 58.0129 78.3371 57.2846 78.3371C56.5583 78.3371 55.9684 78.9263 55.9684 79.6533V85.9994H31.546V77.1554C31.546 67.2643 38.4314 58.978 47.6684 56.8318C51.5284 57.7288 54.975 59.6958 57.6835 62.4024C61.4589 66.179 63.7927 71.394 63.7927 77.1554V77.1554Z" fill="#61B4D8"/>
<path d="M30.9305 60.0829C31.2724 66.4152 36.5135 71.4438 42.9298 71.4438C43.7113 71.4438 44.4743 71.3684 45.2131 71.226C50.5507 70.2011 54.6312 65.6449 54.9297 60.0829" fill="#DDA378"/>
<path d="M42.9311 6.28766C54.454 6.28766 63.7946 15.629 63.7946 27.1512V42.5C63.7946 52.6674 56.5201 61.136 46.8934 62.9856C45.7911 63.1982 44.6593 63.3242 43.5025 63.3564H43.4743C43.2749 63.3616 43.0754 63.3636 42.8733 63.3629C31.374 63.3413 22.0675 54 22.0675 42.5V27.1512C22.0675 15.629 31.4081 6.28766 42.9311 6.28766V6.28766Z" fill="#FFD0A6"/>
<path d="M46.5227 63.0532C45.5385 63.2251 44.5294 63.3288 43.5025 63.357H43.4743C43.2742 63.3623 43.0761 63.3636 42.874 63.3636C31.3727 63.3413 22.0675 54.0006 22.0675 42.5007V27.1506C22.0675 15.6283 31.4081 6.28766 42.9324 6.28766C44.1606 6.28766 45.3627 6.3933 46.5339 6.59866C36.7261 8.3046 29.2724 16.8572 29.2724 27.1506V42.5007C29.2718 52.7875 36.7188 61.3473 46.5227 63.0532V63.0532Z" fill="#E8B182"/>
<path d="M42.9304 53.1326C40.1287 53.1326 37.4943 52.0414 35.5135 50.0606C34.9991 49.5462 34.9991 48.7129 35.5135 48.1992C36.0279 47.6848 36.8612 47.6848 37.3749 48.1992C38.8591 49.6827 40.8314 50.5002 42.9297 50.5002C45.028 50.5002 47.001 49.6827 48.4845 48.1992C48.9989 47.6848 49.8322 47.6848 50.3459 48.1992C50.8603 48.7129 50.8603 49.5468 50.3466 50.0606C48.3657 52.0414 45.732 53.1326 42.9304 53.1326Z" fill="#DDA378"/>
<path d="M63.7941 27.1506V34.8817C44.3983 28.5356 42.9312 16.6991 42.9312 16.6991C42.9312 16.6991 41.4621 28.5356 22.0663 34.8817V27.1506C22.0663 15.6283 31.4069 6.28766 42.9312 6.28766C54.4534 6.28766 63.7941 15.6283 63.7941 27.1506Z" fill="#E6E6E6"/>
<path d="M46.4414 6.58423C36.5903 8.25145 29.0888 16.8257 29.0888 27.1506V32C27.0581 33.0341 24.7308 34.0097 22.0669 34.8817V27.1506C22.0669 15.6283 31.4075 6.28766 42.9311 6.28766C44.1279 6.28766 45.3004 6.38805 46.4414 6.58423Z" fill="#CCCCCC"/>
<path d="M37.2582 39.6754C36.5312 39.6754 35.942 39.0855 35.942 38.3592V34.986C35.942 34.259 36.5312 33.6692 37.2582 33.6692C37.9859 33.6692 38.5751 34.259 38.5751 34.986V38.3592C38.5751 39.0855 37.9859 39.6754 37.2582 39.6754Z" fill="#1A414C"/>
<path d="M48.604 39.6754C47.877 39.6754 47.2878 39.0855 47.2878 38.3592V34.986C47.2878 34.259 47.877 33.6692 48.604 33.6692C49.331 33.6692 49.9202 34.259 49.9202 34.986V38.3592C49.9202 39.0855 49.331 39.6754 48.604 39.6754Z" fill="#1A414C"/>
<path d="M37.2582 47.4085C34.404 47.4085 32.0826 45.0865 32.0826 42.2323C32.0826 39.3782 34.404 37.0562 37.2582 37.0562C40.1123 37.0562 42.4344 39.3782 42.4344 42.2323C42.4344 45.0865 40.1123 47.4085 37.2582 47.4085ZM37.2582 39.6892C35.856 39.6892 34.715 40.8302 34.715 42.2323C34.715 43.6351 35.856 44.7755 37.2582 44.7755C38.661 44.7755 39.8013 43.6351 39.8013 42.2323C39.8013 40.8302 38.661 39.6892 37.2582 39.6892V39.6892Z" fill="#F45395"/>
<path d="M48.6039 47.4085C45.7498 47.4085 43.4277 45.0865 43.4277 42.2323C43.4277 39.3782 45.7498 37.0562 48.6039 37.0562C51.4581 37.0562 53.7801 39.3782 53.7801 42.2323C53.7801 45.0865 51.4581 47.4085 48.6039 47.4085ZM48.6039 39.6892C47.2018 39.6892 46.0608 40.8302 46.0608 42.2323C46.0608 43.6351 47.2018 44.7755 48.6039 44.7755C50.0061 44.7755 51.1471 43.6351 51.1471 42.2323C51.1471 40.8302 50.0061 39.6892 48.6039 39.6892V39.6892Z" fill="#F45395"/>
<path d="M44.744 43.5485H41.1182C40.3912 43.5485 39.802 42.9593 39.802 42.2323C39.802 41.5053 40.3912 40.9161 41.1182 40.9161H44.744C45.4716 40.9161 46.0608 41.5053 46.0608 42.2323C46.0608 42.9593 45.471 43.5485 44.744 43.5485Z" fill="#F45395"/>
</svg>
